<?xml version="1.0" encoding="utf-8" ?>
<svg baseProfile="tiny" height="1800" version="1.2" width="930" xmlns="http://www.w3.org/2000/svg" xmlns:ev="http://www.w3.org/2001/xml-events" xmlns:xlink="http://www.w3.org/1999/xlink"><defs /><g transform="translate(2,1800)"><g transform="scale(1,-1)"><rect fill="rgb(255,255,255)" height="100%" width="100%" x="0" y="0" /><line stroke="rgb(10%,10%,10%)" x1="0" x2="0" y1="0" y2="2250" /><line stroke="rgb(10%,10%,10%)" x1="300" x2="300" y1="0" y2="2250" /><line stroke="rgb(10%,10%,10%)" x1="600" x2="600" y1="0" y2="2250" /><line stroke="rgb(10%,10%,10%)" x1="900" x2="900" y1="0" y2="2250" /><g><line stroke="rgb(0%,0%,0%)" x1="0" x2="300" y1="1560" y2="1539" /><line stroke="rgb(0%,0%,0%)" x1="0" x2="300" y1="1467" y2="1467" /><line stroke="rgb(0%,0%,0%)" x1="0" x2="300" y1="1587" y2="1500" /><line stroke="rgb(0%,0%,0%)" x1="0" x2="300" y1="1488" y2="1425" /><line stroke="rgb(0%,0%,0%)" x1="0" x2="300" y1="1380" y2="1167" /><line stroke="rgb(0%,0%,0%)" x1="0" x2="300" y1="1494" y2="1350" /><line stroke="rgb(0%,0%,0%)" x1="0" x2="300" y1="1572" y2="1470" /><line stroke="rgb(0%,0%,0%)" x1="0" x2="300" y1="1596" y2="1521" /><line stroke="rgb(0%,0%,0%)" x1="0" x2="300" y1="1422" y2="1377" /><line stroke="rgb(0%,0%,0%)" x1="0" x2="300" y1="1386" y2="1374" /><line stroke="rgb(0%,0%,0%)" x1="0" x2="300" y1="1653" y2="1611" /><line stroke="rgb(0%,0%,0%)" x1="0" x2="300" y1="1572" y2="1563" /><line stroke="rgb(0%,0%,0%)" x1="0" x2="300" y1="1428" y2="1257" /><line stroke="rgb(0%,0%,0%)" x1="0" x2="300" y1="1371" y2="1296" /><line stroke="rgb(0%,0%,0%)" x1="0" x2="300" y1="1530" y2="1488" /><line stroke="rgb(0%,0%,0%)" x1="0" x2="300" y1="1578" y2="1545" /><line stroke="rgb(0%,0%,0%)" x1="0" x2="300" y1="1569" y2="1533" /><line stroke="rgb(0%,0%,0%)" x1="0" x2="300" y1="1569" y2="1395" /><line stroke="rgb(0%,0%,0%)" x1="0" x2="300" y1="1593" y2="1560" /><line stroke="rgb(0%,0%,0%)" x1="0" x2="300" y1="1425" y2="1389" /><line stroke="rgb(0%,0%,0%)" x1="0" x2="300" y1="1467" y2="1404" /><line stroke="rgb(0%,0%,0%)" x1="0" x2="300" y1="1482" y2="1461" /><line stroke="rgb(0%,0%,0%)" x1="0" x2="300" y1="1434" y2="1341" /><line stroke="rgb(0%,0%,0%)" x1="0" x2="300" y1="1524" y2="1524" /><line stroke="rgb(0%,0%,0%)" x1="0" x2="300" y1="1551" y2="1494" /><line stroke="rgb(0%,0%,0%)" x1="0" x2="300" y1="1431" y2="1320" /><line stroke="rgb(0%,0%,0%)" x1="0" x2="300" y1="1476" y2="1428" /><line stroke="rgb(0%,0%,0%)" x1="0" x2="300" y1="1557" y2="1452" /><line stroke="rgb(0%,0%,0%)" x1="0" x2="300" y1="1416" y2="1284" /><line stroke="rgb(0%,0%,0%)" x1="0" x2="300" y1="1245" y2="1242" /><line stroke="rgb(0%,0%,0%)" x1="0" x2="300" y1="1464" y2="1392" /><line stroke="rgb(0%,0%,0%)" x1="0" x2="300" y1="1503" y2="1350" /><line stroke="rgb(0%,0%,0%)" x1="0" x2="300" y1="1413" y2="1200" /><line stroke="rgb(0%,0%,0%)" x1="0" x2="300" y1="1170" y2="1095" /><line stroke="rgb(0%,0%,0%)" x1="0" x2="300" y1="1164" y2="1149" /><line stroke="rgb(0%,0%,0%)" x1="0" x2="300" y1="1512" y2="1464" /><line stroke="rgb(0%,0%,0%)" x1="0" x2="300" y1="1212" y2="1089" /><line stroke="rgb(0%,0%,0%)" x1="0" x2="300" y1="1419" y2="1338" /><line stroke="rgb(0%,0%,0%)" x1="0" x2="300" y1="1509" y2="1503" /><line stroke="rgb(0%,0%,0%)" x1="0" x2="300" y1="1425" y2="1191" /><line stroke="rgb(0%,0%,0%)" x1="0" x2="300" y1="1485" y2="1461" /><line stroke="rgb(0%,0%,0%)" x1="0" x2="300" y1="1173" y2="1101" /><line stroke="rgb(0%,0%,0%)" x1="0" x2="300" y1="1239" y2="1086" /><line stroke="rgb(0%,0%,0%)" x1="0" x2="300" y1="1428" y2="1416" /><line stroke="rgb(0%,0%,0%)" x1="0" x2="300" y1="1617" y2="1551" /><line stroke="rgb(0%,0%,0%)" x1="0" x2="300" y1="1323" y2="1314" /><line stroke="rgb(0%,0%,0%)" x1="0" x2="300" y1="1416" y2="1383" /><line stroke="rgb(0%,0%,0%)" x1="0" x2="300" y1="1161" y2="1161" /><line stroke="rgb(0%,0%,0%)" x1="0" x2="300" y1="1161" y2="1161" /><line stroke="rgb(0%,0%,0%)" x1="0" x2="300" y1="1182" y2="1164" /><line stroke="rgb(0%,0%,0%)" x1="0" x2="300" y1="1191" y2="1167" /><line stroke="rgb(0%,0%,0%)" x1="0" x2="300" y1="1512" y2="1383" /><line stroke="rgb(0%,0%,0%)" x1="0" x2="300" y1="1452" y2="1359" /><line stroke="rgb(0%,0%,0%)" x1="0" x2="300" y1="1515" y2="1359" /><line stroke="rgb(0%,0%,0%)" x1="0" x2="300" y1="1467" y2="1431" /><line stroke="rgb(0%,0%,0%)" x1="0" x2="300" y1="1557" y2="1308" /><line stroke="rgb(0%,0%,0%)" x1="0" x2="300" y1="1506" y2="1494" /><line stroke="rgb(0%,0%,0%)" x1="0" x2="300" y1="1506" y2="1371" /><line stroke="rgb(0%,0%,0%)" x1="0" x2="300" y1="1515" y2="1512" /><line stroke="rgb(0%,0%,0%)" x1="0" x2="300" y1="1488" y2="1455" /><line stroke="rgb(0%,0%,0%)" x1="300" x2="600" y1="1404" y2="1401" /><line stroke="rgb(0%,0%,0%)" x1="300" x2="600" y1="1404" y2="1383" /><line stroke="rgb(0%,0%,0%)" x1="300" x2="600" y1="1458" y2="1413" /><line stroke="rgb(0%,0%,0%)" x1="300" x2="600" y1="1524" y2="1518" /><line stroke="rgb(0%,0%,0%)" x1="300" x2="600" y1="1464" y2="1422" /><line stroke="rgb(0%,0%,0%)" x1="300" x2="600" y1="1089" y2="1080" /><line stroke="rgb(0%,0%,0%)" x1="300" x2="600" y1="1461" y2="1428" /><line stroke="rgb(0%,0%,0%)" x1="300" x2="600" y1="1101" y2="1101" /><line stroke="rgb(0%,0%,0%)" x1="300" x2="600" y1="1278" y2="1269" /><line stroke="rgb(0%,0%,0%)" x1="300" x2="600" y1="1164" y2="1164" /><line stroke="rgb(0%,0%,0%)" x1="600" x2="900" y1="1413" y2="1266" /><line stroke="rgb(0%,0%,0%)" x1="600" x2="900" y1="1422" y2="1350" /><line stroke="rgb(0%,0%,0%)" x1="600" x2="900" y1="1269" y2="1233" /><line stroke="rgb(0%,0%,0%)" x1="600" x2="900" y1="1164" y2="1164" /><line stroke="rgb(0%,0%,0%)" x1="600" x2="900" y1="1362" y2="1362" /></g></g><line stroke="rgb(0%,100%,0%)" x1="0" x2="900" y1="0" y2="0" /><text fill="rgb(0%,80%,0%)" x="900" y="0">0</text><line stroke="rgb(0%,100%,0%)" x1="0" x2="900" y1="-30" y2="-30" /><text fill="rgb(0%,80%,0%)" x="900" y="-30">10</text><line stroke="rgb(0%,100%,0%)" x1="0" x2="900" y1="-60" y2="-60" /><text fill="rgb(0%,80%,0%)" x="900" y="-60">20</text><line stroke="rgb(0%,100%,0%)" x1="0" x2="900" y1="-90" y2="-90" /><text fill="rgb(0%,80%,0%)" x="900" y="-90">30</text><line stroke="rgb(0%,100%,0%)" x1="0" x2="900" y1="-120" y2="-120" /><text fill="rgb(0%,80%,0%)" x="900" y="-120">40</text><line stroke="rgb(0%,100%,0%)" x1="0" x2="900" y1="-150" y2="-150" /><text fill="rgb(0%,80%,0%)" x="900" y="-150">50</text><line stroke="rgb(0%,100%,0%)" x1="0" x2="900" y1="-180" y2="-180" /><text fill="rgb(0%,80%,0%)" x="900" y="-180">60</text><line stroke="rgb(0%,100%,0%)" x1="0" x2="900" y1="-210" y2="-210" /><text fill="rgb(0%,80%,0%)" x="900" y="-210">70</text><line stroke="rgb(0%,100%,0%)" x1="0" x2="900" y1="-240" y2="-240" /><text fill="rgb(0%,80%,0%)" x="900" y="-240">80</text><line stroke="rgb(0%,100%,0%)" x1="0" x2="900" y1="-270" y2="-270" /><text fill="rgb(0%,80%,0%)" x="900" y="-270">90</text><line stroke="rgb(0%,100%,0%)" x1="0" x2="900" y1="-300" y2="-300" /><text fill="rgb(0%,80%,0%)" x="900" y="-300">100</text><line stroke="rgb(0%,100%,0%)" x1="0" x2="900" y1="-330" y2="-330" /><text fill="rgb(0%,80%,0%)" x="900" y="-330">110</text><line stroke="rgb(0%,100%,0%)" x1="0" x2="900" y1="-360" y2="-360" /><text fill="rgb(0%,80%,0%)" x="900" y="-360">120</text><line stroke="rgb(0%,100%,0%)" x1="0" x2="900" y1="-390" y2="-390" /><text fill="rgb(0%,80%,0%)" x="900" y="-390">130</text><line stroke="rgb(0%,100%,0%)" x1="0" x2="900" y1="-420" y2="-420" /><text fill="rgb(0%,80%,0%)" x="900" y="-420">140</text><line stroke="rgb(0%,100%,0%)" x1="0" x2="900" y1="-450" y2="-450" /><text fill="rgb(0%,80%,0%)" x="900" y="-450">150</text><line stroke="rgb(0%,100%,0%)" x1="0" x2="900" y1="-480" y2="-480" /><text fill="rgb(0%,80%,0%)" x="900" y="-480">160</text><line stroke="rgb(0%,100%,0%)" x1="0" x2="900" y1="-510" y2="-510" /><text fill="rgb(0%,80%,0%)" x="900" y="-510">170</text><line stroke="rgb(0%,100%,0%)" x1="0" x2="900" y1="-540" y2="-540" /><text fill="rgb(0%,80%,0%)" x="900" y="-540">180</text><line stroke="rgb(0%,100%,0%)" x1="0" x2="900" y1="-570" y2="-570" /><text fill="rgb(0%,80%,0%)" x="900" y="-570">190</text><line stroke="rgb(0%,100%,0%)" x1="0" x2="900" y1="-600" y2="-600" /><text fill="rgb(0%,80%,0%)" x="900" y="-600">200</text><line stroke="rgb(0%,100%,0%)" x1="0" x2="900" y1="-630" y2="-630" /><text fill="rgb(0%,80%,0%)" x="900" y="-630">210</text><line stroke="rgb(0%,100%,0%)" x1="0" x2="900" y1="-660" y2="-660" /><text fill="rgb(0%,80%,0%)" x="900" y="-660">220</text><line stroke="rgb(0%,100%,0%)" x1="0" x2="900" y1="-690" y2="-690" /><text fill="rgb(0%,80%,0%)" x="900" y="-690">230</text><line stroke="rgb(0%,100%,0%)" x1="0" x2="900" y1="-720" y2="-720" /><text fill="rgb(0%,80%,0%)" x="900" y="-720">240</text><line stroke="rgb(0%,100%,0%)" x1="0" x2="900" y1="-750" y2="-750" /><text fill="rgb(0%,80%,0%)" x="900" y="-750">250</text><line stroke="rgb(0%,100%,0%)" x1="0" x2="900" y1="-780" y2="-780" /><text fill="rgb(0%,80%,0%)" x="900" y="-780">260</text><line stroke="rgb(0%,100%,0%)" x1="0" x2="900" y1="-810" y2="-810" /><text fill="rgb(0%,80%,0%)" x="900" y="-810">270</text><line stroke="rgb(0%,100%,0%)" x1="0" x2="900" y1="-840" y2="-840" /><text fill="rgb(0%,80%,0%)" x="900" y="-840">280</text><line stroke="rgb(0%,100%,0%)" x1="0" x2="900" y1="-870" y2="-870" /><text fill="rgb(0%,80%,0%)" x="900" y="-870">290</text><line stroke="rgb(0%,100%,0%)" x1="0" x2="900" y1="-900" y2="-900" /><text fill="rgb(0%,80%,0%)" x="900" y="-900">300</text><line stroke="rgb(0%,100%,0%)" x1="0" x2="900" y1="-930" y2="-930" /><text fill="rgb(0%,80%,0%)" x="900" y="-930">310</text><line stroke="rgb(0%,100%,0%)" x1="0" x2="900" y1="-960" y2="-960" /><text fill="rgb(0%,80%,0%)" x="900" y="-960">320</text><line stroke="rgb(0%,100%,0%)" x1="0" x2="900" y1="-990" y2="-990" /><text fill="rgb(0%,80%,0%)" x="900" y="-990">330</text><line stroke="rgb(0%,100%,0%)" x1="0" x2="900" y1="-1020" y2="-1020" /><text fill="rgb(0%,80%,0%)" x="900" y="-1020">340</text><line stroke="rgb(0%,100%,0%)" x1="0" x2="900" y1="-1050" y2="-1050" /><text fill="rgb(0%,80%,0%)" x="900" y="-1050">350</text><line stroke="rgb(0%,100%,0%)" x1="0" x2="900" y1="-1080" y2="-1080" /><text fill="rgb(0%,80%,0%)" x="900" y="-1080">360</text><line stroke="rgb(0%,100%,0%)" x1="0" x2="900" y1="-1110" y2="-1110" /><text fill="rgb(0%,80%,0%)" x="900" y="-1110">370</text><line stroke="rgb(0%,100%,0%)" x1="0" x2="900" y1="-1140" y2="-1140" /><text fill="rgb(0%,80%,0%)" x="900" y="-1140">380</text><line stroke="rgb(0%,100%,0%)" x1="0" x2="900" y1="-1170" y2="-1170" /><text fill="rgb(0%,80%,0%)" x="900" y="-1170">390</text><line stroke="rgb(0%,100%,0%)" x1="0" x2="900" y1="-1200" y2="-1200" /><text fill="rgb(0%,80%,0%)" x="900" y="-1200">400</text><line stroke="rgb(0%,100%,0%)" x1="0" x2="900" y1="-1230" y2="-1230" /><text fill="rgb(0%,80%,0%)" x="900" y="-1230">410</text><line stroke="rgb(0%,100%,0%)" x1="0" x2="900" y1="-1260" y2="-1260" /><text fill="rgb(0%,80%,0%)" x="900" y="-1260">420</text><line stroke="rgb(0%,100%,0%)" x1="0" x2="900" y1="-1290" y2="-1290" /><text fill="rgb(0%,80%,0%)" x="900" y="-1290">430</text><line stroke="rgb(0%,100%,0%)" x1="0" x2="900" y1="-1320" y2="-1320" /><text fill="rgb(0%,80%,0%)" x="900" y="-1320">440</text><line stroke="rgb(0%,100%,0%)" x1="0" x2="900" y1="-1350" y2="-1350" /><text fill="rgb(0%,80%,0%)" x="900" y="-1350">450</text><line stroke="rgb(0%,100%,0%)" x1="0" x2="900" y1="-1380" y2="-1380" /><text fill="rgb(0%,80%,0%)" x="900" y="-1380">460</text><line stroke="rgb(0%,100%,0%)" x1="0" x2="900" y1="-1410" y2="-1410" /><text fill="rgb(0%,80%,0%)" x="900" y="-1410">470</text><line stroke="rgb(0%,100%,0%)" x1="0" x2="900" y1="-1440" y2="-1440" /><text fill="rgb(0%,80%,0%)" x="900" y="-1440">480</text><line stroke="rgb(0%,100%,0%)" x1="0" x2="900" y1="-1470" y2="-1470" /><text fill="rgb(0%,80%,0%)" x="900" y="-1470">490</text><line stroke="rgb(0%,100%,0%)" x1="0" x2="900" y1="-1500" y2="-1500" /><text fill="rgb(0%,80%,0%)" x="900" y="-1500">500</text><line stroke="rgb(0%,100%,0%)" x1="0" x2="900" y1="-1530" y2="-1530" /><text fill="rgb(0%,80%,0%)" x="900" y="-1530">510</text><line stroke="rgb(0%,100%,0%)" x1="0" x2="900" y1="-1560" y2="-1560" /><text fill="rgb(0%,80%,0%)" x="900" y="-1560">520</text><line stroke="rgb(0%,100%,0%)" x1="0" x2="900" y1="-1590" y2="-1590" /><text fill="rgb(0%,80%,0%)" x="900" y="-1590">530</text><line stroke="rgb(0%,100%,0%)" x1="0" x2="900" y1="-1620" y2="-1620" /><text fill="rgb(0%,80%,0%)" x="900" y="-1620">540</text><line stroke="rgb(0%,100%,0%)" x1="0" x2="900" y1="-1650" y2="-1650" /><text fill="rgb(0%,80%,0%)" x="900" y="-1650">550</text><line stroke="rgb(0%,100%,0%)" x1="0" x2="900" y1="-1680" y2="-1680" /><text fill="rgb(0%,80%,0%)" x="900" y="-1680">560</text><line stroke="rgb(0%,100%,0%)" x1="0" x2="900" y1="-1710" y2="-1710" /><text fill="rgb(0%,80%,0%)" x="900" y="-1710">570</text><line stroke="rgb(0%,100%,0%)" x1="0" x2="900" y1="-1740" y2="-1740" /><text fill="rgb(0%,80%,0%)" x="900" y="-1740">580</text><line stroke="rgb(0%,100%,0%)" x1="0" x2="900" y1="-1770" y2="-1770" /><text fill="rgb(0%,80%,0%)" x="900" y="-1770">590</text><text fill="black" x="0" y="-16">二本投档</text><text fill="black" x="300" y="-16">二本一补</text><text fill="red" x="0" y="-4">空白</text><text fill="red" x="210" y="-4">缺席</text><text fill="red" x="300" y="-4">空白</text></g></svg>